HIERARCHY
ROOT hip
{
	OFFSET 0.000000 0.000000 0.000000 
	CHANNELS 6 Xposition Yposition Zposition Xrotation Zrotation Yrotation
	JOINT abdomen
	{
		OFFSET 0.000000 3.402643 0.000000 
		CHANNELS 3 Xrotation Zrotation Yrotation
		JOINT chest
		{
			OFFSET 0.000000 8.438565 -0.680529 
			CHANNELS 3 Xrotation Zrotation Yrotation
			JOINT neck
			{
				OFFSET 0.000000 10.207942 -0.272212 
				CHANNELS 3 Xrotation Zrotation Yrotation
				JOINT head
				{
					OFFSET 0.000000 3.130431 0.000000 
					CHANNELS 3 Xrotation Zrotation Yrotation
					End Site
					{
						OFFSET 0.000000 3.130435 0.000000 
					}
				}
			}
			JOINT lCollar
			{
				OFFSET 3.470700 6.669187 -0.816635 
				CHANNELS 3 Yrotation Zrotation Xrotation
				JOINT lShldr
				{
					OFFSET 3.198488 0.000000 0.000000 
					CHANNELS 3 Zrotation Yrotation Xrotation
					JOINT lForeArm
					{
						OFFSET 10.139888 0.000000 0.000000 
						CHANNELS 3 Yrotation Zrotation Xrotation
						JOINT lHand
						{
							OFFSET 8.370511 0.000000 0.000000 
							CHANNELS 3 Zrotation Yrotation Xrotation
							End Site
							{
								OFFSET 4.083176 0.000000 0.000000 
							}
						}
					}
				}
			}
			JOINT rCollar
			{
				OFFSET -3.470700 6.669187 -0.816635 
				CHANNELS 3 Yrotation Zrotation Xrotation
				JOINT rShldr
				{
					OFFSET -3.198488 0.000000 0.000000 
					CHANNELS 3 Zrotation Yrotation Xrotation
					JOINT rForeArm
					{
						OFFSET -10.139888 0.000000 0.000000 
						CHANNELS 3 Yrotation Zrotation Xrotation
						JOINT rHand
						{
							OFFSET -8.370511 0.000000 0.000000 
							CHANNELS 3 Zrotation Yrotation Xrotation
							End Site
							{
								OFFSET -4.083176 0.000000 0.000000 
							}
						}
					}
				}
			}
		}
	}
	JOINT lThigh
	{
		OFFSET 5.308129 -1.633274 1.361059 
		CHANNELS 3 Xrotation Zrotation Yrotation
		JOINT lShin
		{
			OFFSET -2.041588 -20.007561 0.000000 
			CHANNELS 3 Xrotation Zrotation Yrotation
			JOINT lFoot
			{
				OFFSET 0.000000 -19.190928 -1.224953 
				CHANNELS 3 Xrotation Yrotation Zrotation
				End Site
				{
					OFFSET 0.000000 -2.449906 4.627600 
				}
			}
		}
	}
	JOINT rThigh
	{
		OFFSET -5.308129 -1.633274 1.361059 
		CHANNELS 3 Xrotation Zrotation Yrotation
		JOINT rShin
		{
			OFFSET 2.041588 -20.007561 0.000000 
			CHANNELS 3 Xrotation Zrotation Yrotation
			JOINT rFoot
			{
				OFFSET 0.000000 -19.190928 -1.224953 
				CHANNELS 3 Xrotation Yrotation Zrotation
				End Site
				{
					OFFSET 0.000000 -2.449906 4.627600 
				}
			}
		}
	}
}
MOTION
Frames: 11
Frame Time: 0.033333
-1.130262 49.678570 -4.482011 6.738281 6.054688 -8.807564 20.177000 -11.988697 -4.360673 -13.662109 4.736328 9.414063 40.289341 -8.993493 -0.881385 -15.634768 6.025390 17.548828 2.000000 -2.000000 0.000000 -59.033203 17.041016 0.852474 -62.090881 8.307565 43.754234 -2.682976 -5.591643 -63.585522 -2.000000 2.000000 0.000000 50.449219 13.505859 90.019531 8.425627 -50.765575 11.406722 26.566353 -5.529483 -81.103317 -2.753267 5.932913 19.021057 30.994190 3.126935 -0.426938 -10.862183 3.014048 -6.591189 -16.562105 -13.134484 -2.317290 49.835938 -0.019411 3.541939 -10.305537 3.048073 8.665875 
-0.969582 49.974350 -5.123398 8.330078 7.148438 -6.795660 20.177000 -11.988697 -4.360673 -12.773438 5.732422 9.775391 42.123177 -9.894388 -0.959304 -15.097657 4.462891 14.677736 2.000000 -2.000000 0.000000 -46.425781 7.246093 0.595703 -65.309013 23.985979 30.503096 -3.523332 -2.843987 -62.149052 -2.000000 2.000000 0.000000 34.687500 27.998047 85.439453 -3.205534 -50.400105 -13.385514 26.054049 -11.386859 -80.882584 -11.365573 4.276101 18.013014 37.619251 5.440011 -0.305250 -11.179343 1.069503 -4.481617 -21.224733 -15.688931 -2.917761 50.908344 1.374587 3.940600 -7.209172 4.692284 9.594677 
-0.843176 49.952503 -5.609112 9.306642 7.099610 -5.477308 20.177000 -11.988697 -4.360673 -11.249999 7.939454 10.509161 43.629730 -10.177802 -1.003658 -15.566409 3.310547 13.164063 2.000000 -2.000000 0.000000 -31.982422 3.173828 -0.419922 -61.203903 31.175148 21.222630 -3.409364 0.759048 -61.266037 -2.000000 2.000000 0.000000 13.271483 37.841797 79.394531 -11.854663 -47.217590 -33.043907 23.617908 -15.914778 -80.191475 -17.391918 4.423366 17.530409 41.866840 6.353653 -0.345883 -11.280701 -0.838090 -1.490445 -22.631018 -16.148054 -3.019958 48.920437 1.933483 3.869559 -5.391191 4.505792 9.040139 
-0.615960 49.704235 -6.028693 10.371094 6.933594 -4.707031 20.177000 -11.988697 -4.360673 -9.560547 10.712891 11.406251 44.284294 -10.168151 -1.005117 -15.898437 2.177748 12.060996 2.000000 -2.000000 0.000000 -17.880857 4.716797 -2.489432 -52.095963 30.802568 15.732782 -1.331657 1.982417 -60.900433 -2.000000 2.000000 0.000000 -11.162110 42.246094 70.820313 -17.381784 -40.023388 -46.942532 21.025076 -19.008343 -79.363968 -21.771065 4.400660 17.050787 43.373394 6.900785 -0.303194 -10.233532 -1.851721 -0.844425 -24.618591 -16.454813 -3.040140 47.745960 2.070211 3.802623 -4.402993 4.216827 8.055114 
-0.085569 49.548798 -6.313473 11.269531 7.763672 -3.798828 20.177000 -11.988697 -4.360673 -7.216796 13.281252 12.394823 44.591671 -9.188588 -0.930914 -15.761721 2.216797 11.259767 2.000000 -2.000000 0.000000 -10.449219 13.056640 -3.708731 -43.449394 23.192432 18.744614 -0.672228 0.711561 -60.969082 -2.000000 2.000000 0.000000 -32.343754 39.765629 63.515621 -18.348961 -30.406267 -54.395779 19.530523 -19.893873 -78.760963 -23.206676 2.106852 16.199112 41.038940 6.708881 -0.216802 -7.744522 -2.453555 -2.519043 -27.103422 -18.804079 -3.689917 47.199669 2.089562 3.736007 -2.681339 4.259598 6.994944 
0.292019 49.727142 -6.250830 11.855470 9.199219 -2.293360 20.177000 -11.988697 -4.360673 -6.513673 13.837891 12.646485 45.036537 -8.051587 -0.858773 -15.859378 3.310547 11.103518 2.000000 -2.000000 0.000000 -8.369140 19.316404 -4.147161 -41.760654 19.080212 23.598515 -1.355556 0.107468 -61.163136 -2.000000 2.000000 0.000000 -36.689449 35.947266 63.072140 -18.973410 -28.860397 -56.012878 19.342478 -19.762932 -78.627861 -21.996428 -0.909664 15.507058 37.542370 5.860067 -0.239389 -6.284946 -2.877540 -2.161132 -27.518959 -21.542482 -4.666426 46.333553 1.503831 3.538717 -1.667701 4.353153 7.347674 
0.415096 49.944393 -5.972620 12.460938 10.136718 0.791016 20.177000 -11.988697 -4.360673 -7.099609 14.072266 12.619561 45.488770 -6.853671 -0.776960 -16.162109 3.857422 10.557299 2.000000 -2.000000 0.000000 -9.550781 22.343748 -3.593750 -41.842045 19.439013 24.306133 0.282557 0.905758 -61.543358 -2.000000 2.000000 0.000000 -34.326176 31.367189 65.683594 -21.886665 -32.751186 -55.737633 19.098394 -19.161999 -78.657753 -20.410568 -3.534468 14.922797 34.741600 5.571567 -0.121655 -6.855575 -3.699517 0.688249 -25.962788 -23.833632 -5.566359 45.824806 1.601468 3.508883 -2.139023 3.214792 9.610380 
0.094400 50.055973 -5.452363 12.695313 9.511719 6.485989 20.177000 -11.988697 -4.360673 -8.554688 14.628908 12.502466 45.534985 -5.064144 -0.634691 -16.611330 3.310547 8.867188 2.000000 -2.000000 0.000000 -14.599609 21.738281 -1.425781 -42.460709 24.839109 18.467934 6.105713 -0.721277 -62.317642 -2.000000 2.000000 0.000000 -24.833986 24.306643 71.347656 -26.609163 -40.558441 -55.479702 17.323845 -17.134247 -79.013939 -19.024860 -4.160689 14.918188 33.815235 7.345661 0.296758 -8.185081 -7.166738 1.077799 -21.581066 -24.002480 -5.825669 46.145668 3.368859 3.930956 -4.678741 -2.292245 12.687697 
-0.291446 50.148201 -5.100604 12.412109 8.584202 10.117437 20.177000 -11.988697 -4.360673 -9.111328 14.687502 12.424353 44.823971 -4.034610 -0.554146 -16.816408 2.587891 7.412109 2.000000 -2.000000 0.000000 -19.853516 21.357422 0.527344 -43.832264 29.145895 15.095325 8.461528 -5.090748 -63.296230 -2.000000 2.000000 0.000000 -11.308593 19.707031 75.550171 -27.069262 -43.671398 -55.684460 15.806410 -15.280260 -79.479225 -19.015715 -2.901495 15.260996 35.236973 9.062897 0.619682 -6.577390 -10.965821 -4.864664 -18.640844 -22.145784 -5.294894 45.729149 4.159928 4.068518 -5.816171 -7.244677 13.120887 
-0.506657 50.425636 -4.874514 12.363282 8.740234 12.462420 20.177000 -11.988697 -4.360673 -9.072267 13.964845 12.255860 43.808243 -4.044266 -0.552685 -17.324221 2.089844 5.996094 2.000000 -2.000000 0.000000 -25.693359 22.666016 2.353515 -45.075851 31.034309 14.152268 9.084178 -9.187449 -64.380684 -2.000000 2.000000 0.000000 1.630859 16.699219 78.496094 -23.668739 -43.000168 -53.521023 15.608171 -14.046181 -79.850304 -19.521324 -2.363183 15.319984 37.964226 9.933955 0.677464 -3.947221 -13.354652 -11.476221 -16.929649 -21.312323 -5.087966 44.151962 4.413357 3.982616 -5.244210 -10.252294 11.431274 
-0.456934 50.897900 -4.808983 13.789063 10.029298 12.823965 20.177000 -11.988697 -4.360673 -9.345703 12.783204 11.933595 42.549217 -6.260692 -0.709643 -18.339846 2.294922 5.351563 2.000000 -2.000000 0.000000 -32.695309 27.470703 4.008412 -44.191193 27.678192 14.194408 10.585723 -12.640782 -66.347336 -2.000000 2.000000 0.000000 15.781249 17.158203 82.353516 -16.650848 -37.390957 -48.000278 17.404467 -13.160400 -80.062035 -20.728527 -3.301008 14.955724 41.117779 9.433180 0.398255 -3.063305 -13.147507 -13.596633 -17.263117 -22.456974 -5.475966 41.944157 4.647585 3.807431 -3.786971 -10.807490 8.078016 
